{
    "asset" : {
        "generator" : "Khronos glTF Blender I/O v1.0.5",
        "version" : "2.0"
    },
    "scene" : 0,
    "scenes" : [
        {
            "name" : "Scene",
            "nodes" : [
                0,
                1,
                2,
                3
            ]
        }
    ],
    "nodes" : [
        {
            "name" : "Light",
            "rotation" : [
                0.16907575726509094,
                0.7558803558349609,
                -0.27217137813568115,
                0.570947527885437
            ],
            "scale" : [
                14.327254295349121,
                14.327253341674805,
                14.327256202697754
            ],
            "translation" : [
                3.5867929458618164,
                11.98025131225586,
                7.186840057373047
            ]
        },
        {
            "name" : "Camera",
            "rotation" : [
                0.483536034822464,
                0.33687159419059753,
                -0.20870360732078552,
                0.7804827094078064
            ],
            "scale" : [
                8.719165802001953,
                8.719165802001953,
                8.719165802001953
            ],
            "translation" : [
                64.16339874267578,
                43.23231887817383,
                60.387107849121094
            ]
        },
        {
            "name" : "Empty",
            "rotation" : [
                0.7071068286895752,
                0,
                0,
                0.7071067094802856
            ],
            "scale" : [
                8.423364639282227,
                2.980719566345215,
                8.476763725280762
            ]
        },
        {
            "mesh" : 0,
            "name" : "doggo",
            "rotation" : [
                0.7071067690849304,
                0,
                0,
                0.7071067690849304
            ]
        }
    ],
    "materials" : [
        {
            "doubleSided" : true,
            "name" : "Material.002",
            "pbrMetallicRoughness" : {}
        }
    ],
    "meshes" : [
        {
            "name" : "Plane",
            "primitives" : [
                {
                    "attributes" : {
                        "POSITION" : 0,
                        "NORMAL" : 1,
                        "TEXCOORD_0" : 2
                    },
                    "indices" : 3,
                    "material" : 0
                }
            ]
        }
    ],
    "accessors" : [
        {
            "bufferView" : 0,
            "componentType" : 5126,
            "count" : 4952,
            "max" : [
                2.454195499420166,
                0.827072262763977,
                2.127549886703491
            ],
            "min" : [
                -2.2616209983825684,
                -0.827072262763977,
                -2.206226110458374
            ],
            "type" : "VEC3"
        },
        {
            "bufferView" : 1,
            "componentType" : 5126,
            "count" : 4952,
            "type" : "VEC3"
        },
        {
            "bufferView" : 2,
            "componentType" : 5126,
            "count" : 4952,
            "type" : "VEC2"
        },
        {
            "bufferView" : 3,
            "componentType" : 5123,
            "count" : 5946,
            "type" : "SCALAR"
        }
    ],
    "bufferViews" : [
        {
            "buffer" : 0,
            "byteLength" : 59424,
            "byteOffset" : 0
        },
        {
            "buffer" : 0,
            "byteLength" : 59424,
            "byteOffset" : 59424
        },
        {
            "buffer" : 0,
            "byteLength" : 39616,
            "byteOffset" : 118848
        },
        {
            "buffer" : 0,
            "byteLength" : 11892,
            "byteOffset" : 158464
        }
    ],
    "buffers" : [
        {
            "byteLength" : 170356,
            "uri" : "data:application/octet-stream;base64,"
        }
    ]
}
